<?xml version="1.0" standalone="no"?>
<!DOCTYPE svg PUBLIC "-//W3C//DTD SVG 20010904//EN"
 "http://www.w3.org/TR/2001/REC-SVG-20010904/DTD/svg10.dtd">
<svg version="1.0" xmlns="http://www.w3.org/2000/svg"
 width="480.000000pt" height="480.000000pt" viewBox="0 0 480.000000 480.000000"
 preserveAspectRatio="xMidYMid meet">
<metadata>
Created by potrace 1.11, written by Peter Selinger 2001-2013
</metadata>
<g transform="translate(0.000000,480.000000) scale(0.100000,-0.100000)"
fill="#000000" stroke="none">
<path d="M2311 4178 c-62 -7 -171 -50 -171 -68 0 -18 -38 -20 -71 -3 -41 21
-48 22 -124 25 -57 2 -172 -9 -185 -17 -4 -2 -21 -7 -38 -10 -40 -7 -149 -57
-187 -87 -44 -34 -157 -147 -192 -193 -48 -63 -123 -174 -126 -187 -1 -7 -10
-21 -19 -32 -10 -10 -15 -23 -12 -28 3 -4 1 -8 -5 -8 -9 0 -49 -77 -56 -110
-2 -8 -4 -17 -5 -20 -1 -3 -2 -8 -1 -12 0 -5 -3 -8 -8 -8 -4 0 -18 -35 -31
-77 -13 -43 -22 -78 -21 -78 1 0 -2 -11 -7 -25 -5 -14 -13 -45 -16 -70 -3 -25
-10 -70 -15 -100 -10 -58 -6 -666 4 -735 6 -36 6 -583 2 -1320 -2 -293 5 -417
27 -510 18 -74 56 -153 87 -181 23 -21 78 -42 109 -42 8 -1 33 -5 54 -11 40
-10 317 -7 391 4 77 11 95 17 96 28 0 7 3 21 6 32 2 11 7 59 10 107 3 49 9 88
13 88 8 0 26 -77 22 -92 -5 -19 42 -119 59 -129 11 -6 45 -8 77 -5 171 17 169
16 181 42 14 31 27 31 35 -1 l6 -25 193 4 c162 4 251 9 335 21 16 2 53 56 46
67 -3 4 -1 8 3 8 5 0 19 27 32 60 13 33 28 60 32 60 10 0 2 -85 -12 -128 -16
-48 0 -62 64 -57 29 3 84 7 122 10 39 2 81 7 95 10 14 3 48 7 75 10 74 8 111
23 131 52 11 14 24 30 29 37 6 6 16 22 22 36 11 23 12 22 12 -21 1 -76 13 -83
117 -76 109 8 123 11 166 33 118 60 212 282 245 580 13 116 7 410 -10 509 -19
108 -32 178 -42 230 -1 6 -5 33 -9 60 -11 85 -16 119 -22 143 -3 13 -7 43 -10
65 -3 23 -7 53 -10 67 -3 14 -8 36 -10 50 -4 24 -12 69 -20 120 -3 14 -11 57
-19 95 -8 39 -17 86 -20 105 -3 19 -13 69 -22 110 -19 93 -30 145 -38 190 -3
19 -10 55 -16 80 -10 45 -14 66 -25 130 -4 19 -9 40 -13 45 -3 6 -7 18 -8 29
-13 83 -139 373 -196 450 -4 6 -38 54 -74 106 -104 147 -288 324 -432 415 -24
16 -120 65 -128 67 -5 0 -36 14 -70 29 -35 16 -63 26 -63 24 0 -2 -18 2 -40
10 -22 8 -44 14 -48 14 -4 0 -29 3 -57 6 -82 10 -126 11 -194 3z"/>
</g>
</svg>
